# Blender 4.0.2
# www.blender.org
o patatoide-Cut
v -7.981542 -1.346383 2.493314
v 2.199610 7.235626 -0.406876
v -6.669295 -2.053990 4.727747
v 0.773882 7.176280 -2.345955
v -0.001033 -5.030904 6.304024
v -0.083183 -5.133031 6.196816
v -0.058516 -5.162993 6.165045
v -1.818874 -6.434760 3.969611
v -6.555451 4.636001 -1.292333
v -6.616781 4.529706 -1.453847
v -1.362710 0.096961 -8.389336
v 0.940964 -4.669181 -6.584990
v -2.306198 7.210976 0.377751
v -5.573317 5.648771 0.450881
v -0.695994 7.264467 1.995563
v -6.438101 4.865732 0.625448
v -6.680422 4.624106 0.396885
v -3.601786 6.086360 3.420008
v -0.067818 7.272388 2.077058
v -4.734799 5.134879 3.995592
v -1.551215 6.389071 4.172818
v -1.293508 6.286508 4.451445
v -4.958931 4.551420 4.588158
v 0.822460 7.276462 1.888441
v -7.967782 1.315543 2.557642
v -6.976512 2.096381 4.234783
v -3.945723 3.509878 6.392017
v -3.782415 3.495817 6.499730
v -0.785201 4.837969 6.447466
v -1.504123 3.907081 7.097902
v -1.644625 3.813954 7.131715
v -6.365720 0.599011 5.591666
v -5.078132 -0.469183 6.795574
v -4.787054 -0.412328 7.008262
v 3.730650 3.469391 6.547657
v 5.068339 4.066367 5.032218
v -6.664670 -3.108432 3.927013
v 4.191635 6.486600 -0.797455
v 3.621129 1.682416 7.449951
v 4.635281 6.139708 -1.531579
v 6.615025 2.908228 4.198557
v 4.685675 5.852076 -2.511245
v 6.843165 2.478481 4.186994
v 4.185838 5.735113 -3.532907
v 5.257747 -0.272150 6.671654
v 5.601521 -0.341441 6.381474
v 5.390037 -0.885192 6.495464
v 2.364106 6.136117 -4.277757
v 5.594743 -0.793117 6.335684
v 6.099783 -0.282992 5.910988
v -0.011851 -4.173921 7.062065
v 3.655037 -2.713861 7.030698
v 0.613657 -4.601814 6.683799
v -1.817588 7.165997 -1.728642
v 7.406928 -1.841292 3.610083
v 1.742035 -4.778048 6.315994
v 0.194024 -5.723870 5.489126
v 1.866489 -4.941191 6.116048
v 3.272696 -4.655370 5.805375
v 1.238541 -5.815638 5.222451
v 6.993342 -3.509429 2.742960
v -0.795126 3.486329 -7.483716
v 5.478419 -0.244360 -6.493091
v -3.631059 3.886805 -6.297697
v 2.200173 0.731549 -8.168344
v 0.349500 0.994391 -8.417706
v 3.514544 -0.568825 -7.712482
v 3.359169 -6.384938 2.933000
v -5.302636 5.815541 -0.831549
v 5.771061 -5.344269 1.503185
v -5.616504 5.500834 -1.355968
v -5.747292 5.376209 -1.446910
v 6.709420 -3.199206 -3.753332
v -0.769917 1.067537 -8.378152
v -5.314030 3.346299 -5.443182
v 1.564308 -7.166679 1.957606
v -4.793972 2.385997 -6.477307
v -5.469115 2.453820 -5.882588
v -1.535403 0.242131 -8.355671
v 3.658382 -2.628160 -7.070664
v -6.813214 4.418607 -0.867443
v -2.112718 -0.054993 -8.233015
v -4.708799 1.000014 -6.985179
v -7.276215 3.827810 -0.697745
v 4.084547 -4.244914 -5.694005
v 4.551637 -5.051837 -4.330383
v 4.483972 -5.317711 -3.977739
v 2.611543 -4.051333 -6.659420
v -1.945382 -3.123049 -7.479154
v -7.099019 -0.799499 -4.586166
v -8.369701 -0.217532 -1.461957
v -8.313269 -0.419146 -1.707016
v 1.736428 -6.858779 -2.968315
v -8.154970 -1.871126 -1.117801
v -0.006581 -6.079978 -4.976848
v -0.429381 -6.342958 -4.515354
v 0.516824 -6.693551 -3.799359
v 0.315676 -6.771951 -3.639587
v -1.844870 6.029993 -0.576723
v -1.883812 6.043934 -0.387340
v 0.892622 6.153256 -1.830068
v -0.475967 5.629844 1.085130
v 1.772816 6.189894 -0.632949
v 0.814491 5.894528 1.175699
v 4.012424 5.112652 -2.777345
v 2.125738 5.092213 -3.374404
v 3.345984 5.138693 -1.150390
v -6.207715 4.088644 -0.650320
v -5.831494 4.259406 0.158587
v -5.374335 4.461588 -0.822123
v -5.196961 5.035995 0.201843
v -5.137913 4.980851 0.080767
v -6.657854 -1.367323 2.648881
v -7.215271 -1.174822 2.403130
v -6.606392 -2.017901 4.651193
v -6.596085 -1.974623 4.688195
v -6.243827 -1.737339 4.411461
v -6.252508 -1.708755 4.461020
v -5.631550 -0.159241 4.428840
v -5.930384 1.111545 3.303737
v -6.956179 0.283950 2.221558
v -2.103240 -4.474922 2.760777
v -0.505624 -2.370309 4.889567
v -4.184390 -3.399647 2.440233
v -4.126404 -1.382123 3.414800
v -2.844882 -0.390966 5.212692
v 1.177339 -5.230353 1.227729
v -2.658424 3.335867 4.214922
v -3.696399 3.426142 4.240396
v -2.478933 4.233700 3.430165
v -1.389553 3.481566 5.723956
v 4.973448 1.200822 3.912341
v 3.778283 0.971992 4.831279
v 5.455610 2.388958 3.743992
v 3.278570 1.576443 5.417804
v 4.250826 3.237299 4.506843
v -2.768791 0.938645 -5.626508
v -1.545575 0.513416 -6.448802
v -0.761437 1.115396 -6.899278
v -2.278050 2.317604 -5.343015
v -1.224568 2.361411 -5.858132
v -5.005428 1.282410 -1.486404
v -4.565896 1.031226 -2.487321
v 2.871818 -2.882560 5.179175
v 4.775904 -1.174340 3.587111
v 4.365653 -0.917745 4.496547
v 4.021402 -4.339302 1.752703
v 2.965556 -5.502594 2.862776
v 0.860418 -5.386743 5.000648
v 0.518499 -4.956583 5.126338
v 1.152352 -4.639153 5.236965
v 0.359982 -4.579884 5.514798
v 0.732878 -4.402546 5.504508
v 1.176345 -3.745639 -5.620324
v 1.603413 -3.535131 -5.578078
v 0.301770 -1.927266 -5.120144
v 2.148285 -3.479692 -5.772645
v 0.814879 -0.174531 -5.689589
v 2.439383 -0.552265 -5.968308
v 1.205025 -4.751964 -3.115862
v 0.419017 -4.521251 -4.247519
v 3.735028 -4.372842 -3.567878
v 3.688723 -3.744614 -5.081018
vn 0.3819 0.8024 0.4585
vn -0.2139 0.8815 0.4210
vn -0.3131 0.3282 0.8912
vn -0.5288 -0.4480 -0.7209
vn -0.0130 -0.2660 -0.9639
vn 0.0396 -0.2912 -0.9559
vn -0.7648 0.0429 -0.6428
vn -0.7660 0.6429 -0.0046
vn -0.9527 0.1720 -0.2505
vn 0.9535 -0.2998 -0.0312
vn 0.6240 -0.4465 0.6413
vn 0.8283 -0.4317 0.3571
vn -0.0802 -0.4535 -0.8877
vn 0.3891 -0.7192 -0.5756
vn -0.3598 -0.8931 -0.2701
vn 0.0742 0.9758 -0.2059
vn 0.1182 0.9880 -0.0998
vn -0.3011 0.6925 0.6556
vn 0.5987 0.7322 0.3248
vn 0.7419 0.6666 -0.0719
vn -0.2751 0.8112 -0.5160
vn -0.5339 0.8356 -0.1295
vn -0.6501 0.7198 -0.2434
vn 0.4665 -0.8682 0.1690
vn -0.4545 -0.5828 0.6736
vn -0.3304 -0.1286 0.9351
vn -0.8571 0.0039 0.5152
vn 0.1696 -0.2679 -0.9484
vn 0.1844 -0.2356 -0.9542
vn 0.1540 -0.6380 -0.7544
vn -0.1240 0.8206 -0.5579
vn 0.2851 0.9091 -0.3038
vn -0.4403 0.8828 0.1635
vn 0.3564 0.9097 0.2131
vn 0.4045 0.8224 0.4001
vn 0.3574 0.8975 -0.2583
vn -0.6989 0.5912 0.4024
vn -0.7554 0.6542 0.0381
vn 0.1164 0.5723 -0.8117
vn -0.3008 0.2316 -0.9251
vn -0.1902 0.2866 -0.9390
vn 0.6734 -0.6502 0.3519
vn 0.1864 -0.8118 0.5534
vn 0.3279 -0.7998 0.5027
vn 0.0625 0.9801 0.1886
vn -0.4110 0.9105 0.0459
vn -0.7723 -0.6135 -0.1649
vn -0.8429 -0.4284 0.3257
vn -0.7945 -0.6062 -0.0358
vn -0.6350 0.7665 0.0967
vn -0.3317 0.6978 0.6349
vn -0.3266 0.7027 0.6320
vn -0.4329 -0.5820 0.6884
vn -0.0348 -0.6540 0.7557
vn -0.1108 -0.7603 0.6401
vn -0.8293 -0.4898 0.2689
vn 0.0423 -0.6864 0.7260
vn -0.7435 -0.6668 0.0509
vn -0.3957 0.6533 0.6455
vn -0.4377 -0.8972 -0.0591
vn 0.1212 -0.8847 -0.4501
vn 0.0005 -0.8294 -0.5587
vn 0.3554 -0.7366 0.5754
vn 0.2874 -0.6401 0.7125
vn -0.3773 -0.9244 -0.0552
vn -0.1819 -0.9829 -0.0291
vn 0.2037 0.8765 -0.4362
vn 0.0081 0.9679 -0.2510
vn -0.8522 0.3207 -0.4135
vn -0.8353 0.3941 -0.3834
vn -0.9324 0.3317 -0.1434
vn -0.8879 0.3577 -0.2894
vn -0.3010 0.4003 -0.8655
vn -0.5051 0.3531 -0.7875
vn 0.7914 -0.5409 -0.2846
vn 0.6783 -0.3198 -0.6615
vn 0.7297 -0.2087 -0.6512
vn -0.8185 -0.4191 0.3929
vn -0.8955 0.0471 0.4426
vn -0.9181 0.0110 0.3961
vn -0.9025 0.3903 -0.1818
vn -0.3757 -0.5259 0.7631
vn -0.4885 -0.6045 -0.6292
vn 0.3172 -0.0392 -0.9476
vn 0.4272 -0.2126 0.8788
vn 0.6015 -0.5625 0.5672
vn 0.2166 -0.7729 0.5963
vn -0.3465 -0.9337 0.0907
vn -0.4387 -0.4456 0.7804
vn -0.4042 -0.4753 0.7815
vn 0.6150 0.3462 0.7085
vn 0.5712 0.2659 0.7766
vn -0.4631 0.4848 -0.7420
vn -0.3501 0.3358 -0.8744
vn -0.3966 0.7595 -0.5156
vn -0.4528 -0.8752 -0.1701
vn -0.7557 -0.6166 0.2207
vn 0.0014 0.1613 0.9869
vn -0.5359 -0.5036 0.6777
vn -0.7590 -0.6371 0.1343
vn -0.2858 0.7736 0.5656
vn -0.2754 0.7608 0.5877
vn 0.4807 -0.2546 0.8391
vn -0.2050 0.8381 -0.5054
vn 0.4353 0.8382 0.3284
vn -0.3972 0.7205 0.5684
vn 0.6480 0.3017 0.6994
vn 0.1350 0.4500 0.8827
vn 0.6871 0.5372 0.4892
vn 0.3134 0.9027 -0.2950
vn 0.3265 0.9250 -0.1943
vn -0.6525 -0.2012 -0.7306
vn 0.2896 0.9016 -0.3213
vn -0.1705 0.8574 -0.4856
vn 0.6255 0.2951 0.7223
vn 0.6238 0.2583 0.7377
vn 0.4320 -0.6542 -0.6208
vn 0.0179 0.9995 -0.0250
vn 0.6886 0.3753 0.6205
vn 0.8024 -0.3776 0.4622
vn -0.5135 -0.7594 -0.3996
vn -0.9895 0.0638 -0.1299
vn 0.1559 -0.1797 -0.9713
vn -0.0397 -0.5101 -0.8592
vn 0.0308 -0.1598 0.9867
vn -0.8782 0.3249 -0.3510
vn -0.2344 0.4240 -0.8748
vn -0.6896 0.2156 -0.6914
vn -0.8808 0.2684 -0.3902
vn -0.8677 0.3126 -0.3864
vn 0.7759 0.1157 -0.6201
vn 0.2474 -0.8020 -0.5437
vn -0.4069 -0.5582 -0.7231
vn 0.1453 -0.7802 -0.6084
vn 0.5859 -0.4816 0.6517
vn -0.8662 0.2783 -0.4150
vn -0.8841 -0.0361 -0.4658
vn -0.0316 -0.7978 0.6021
vn 0.6681 0.3449 0.6593
vn 0.9640 0.1837 0.1923
vn -0.5017 -0.6384 -0.5838
vn -0.5475 0.8045 0.2304
vn -0.2030 0.7625 0.6143
vn -0.4535 0.7402 -0.4965
vn -0.0364 0.9924 -0.1175
vn 0.5652 -0.6228 0.5409
vn 0.6555 -0.6239 0.4256
vn 0.5688 -0.7172 0.4025
vn -0.2458 0.6938 0.6769
vn -0.7408 0.6440 -0.1908
vn 0.9136 0.1677 0.3703
vn -0.6642 0.7383 0.1172
vn 0.6652 -0.5684 0.4841
vn -0.1927 -0.5101 0.8383
vn -0.1180 -0.1677 -0.9787
vn 0.0780 -0.9509 0.2994
vn -0.7580 -0.1970 0.6218
vn -0.7979 0.5279 -0.2911
vn -0.7576 0.4307 -0.4904
vn -0.2822 0.6812 0.6756
vn 0.6071 0.4349 0.6651
vn 0.8987 -0.2846 -0.3336
vn 0.3432 -0.4520 -0.8234
s 1
f 129//1 128//2 130//3
f 159//4 67//5 80//6
f 111//7 69//8 112//9
f 144//10 52//11 59//12
f 89//13 95//14 96//15
f 15//16 13//17 18//18
f 99//19 13//17 100//20
f 109//21 17//22 16//23
f 146//24 52//11 144//10
f 1//25 121//26 25//27
f 11//28 66//29 158//30
f 107//31 40//32 105//33
f 4//34 106//35 48//36
f 110//37 69//8 71//38
f 137//39 83//40 77//41
f 152//42 53//43 5//44
f 17//22 108//45 81//46
f 127//47 113//48 94//49
f 131//50 29//51 22//52
f 151//53 60//54 58//55
f 123//56 125//57 122//58
f 130//3 21//59 18//18
f 163//60 85//61 86//62
f 7//63 57//64 152//42
f 127//47 98//65 76//66
f 102//67 15//16 19//68
f 10//69 75//70 143//71
f 139//72 62//73 74//74
f 161//75 12//76 154//77
f 25//27 120//78 26//79
f 32//80 116//81 33//82
f 157//83 156//84 159//4
f 147//85 61//86 145//87
f 126//88 51//89 34//90
f 52//11 45//91 39//92
f 79//93 82//94 138//95
f 124//96 37//97 113//48
f 149//98 57//64 60//54
f 57//64 6//99 8//100
f 129//1 27//101 28//102
f 150//103 149//98 151//53
f 102//67 103//104 101//105
f 131//50 30//106 29//51
f 50//107 132//108 133//109
f 105//33 42//110 44//111
f 141//112 138//95 137//39
f 38//113 103//104 2//114
f 36//115 41//116 38//113
f 97//117 95//14 161//75
f 109//21 112//9 110//37
f 54//118 101//105 4//34
f 43//119 50//107 55//120
f 118//121 32//80 119//122
f 65//123 158//30 66//29
f 156//84 155//124 154//77
f 132//108 43//119 134//125
f 78//126 143//71 75//70
f 33//82 116//81 118//121
f 145//87 146//24 144//10
f 141//112 64//127 62//73
f 82//94 137//39 138//95
f 142//128 91//129 84//130
f 62//73 66//29 74//74
f 6//99 51//89 123//56
f 63//131 85//61 80//6
f 93//132 162//133 87//134
f 132//108 134//125 136//135
f 92//136 143//71 90//137
f 120//78 32//80 26//79
f 151//53 58//55 56//138
f 136//135 35//139 135//140
f 88//141 163//60 157//83
f 110//37 9//142 108//45
f 129//1 23//143 27//101
f 45//91 135//140 39//92
f 2//114 104//144 24//145
f 134//125 43//119 41//116
f 155//124 157//83 163//60
f 145//87 49//146 146//24
f 102//67 13//17 15//16
f 147//85 68//147 70//148
f 18//18 20//149 130//3
f 20//149 129//1 130//3
f 159//4 65//123 67//5
f 111//7 14//150 69//8
f 59//12 68//147 148//151
f 148//151 144//10 59//12
f 90//137 78//126 83//40
f 78//126 77//41 83//40
f 94//49 91//129 92//136
f 90//137 83//40 89//13
f 83//40 82//94 89//13
f 94//49 92//136 90//137
f 97//117 98//65 96//15
f 96//15 94//49 90//137
f 82//94 79//93 11//28
f 96//15 90//137 89//13
f 95//14 97//117 96//15
f 89//13 12//76 95//14
f 82//94 11//28 89//13
f 14//150 16//23 20//149
f 16//23 23//143 20//149
f 69//8 14//150 13//17
f 14//150 20//149 18//18
f 18//18 21//59 15//16
f 21//59 19//68 15//16
f 14//150 18//18 13//17
f 54//118 72//152 71//38
f 54//118 71//38 69//8
f 13//17 54//118 69//8
f 99//19 54//118 13//17
f 16//23 14//150 111//7
f 111//7 109//21 16//23
f 146//24 47//153 52//11
f 1//25 114//154 121//26
f 158//30 156//84 11//28
f 156//84 89//13 11//28
f 38//113 40//32 107//31
f 40//32 42//110 105//33
f 4//34 101//105 106//35
f 110//37 112//9 69//8
f 64//127 140//155 77//41
f 140//155 137//39 77//41
f 152//42 153//156 53//43
f 17//22 109//21 108//45
f 1//25 94//49 114//154
f 94//49 96//15 127//47
f 114//154 94//49 113//48
f 22//52 130//3 131//50
f 130//3 128//2 131//50
f 151//53 149//98 60//54
f 126//88 125//57 123//56
f 125//57 124//96 122//58
f 130//3 22//52 21//59
f 87//134 162//133 86//62
f 162//133 163//60 86//62
f 150//103 152//42 57//64
f 152//42 5//44 7//63
f 127//47 96//15 98//65
f 24//145 104//144 19//68
f 104//144 102//67 19//68
f 143//71 142//128 10//69
f 142//128 84//130 10//69
f 139//72 141//112 62//73
f 161//75 95//14 12//76
f 25//27 121//26 120//78
f 113//48 37//97 117//157
f 37//97 3//158 115//159
f 3//158 33//82 116//81
f 33//82 28//102 27//101
f 27//101 23//143 26//79
f 23//143 16//23 26//79
f 33//82 27//101 32//80
f 121//26 114//154 113//48
f 16//23 17//22 25//27
f 26//79 16//23 25//27
f 81//46 9//142 10//69
f 17//22 81//46 84//130
f 121//26 113//48 119//122
f 37//97 115//159 117//157
f 119//122 120//78 121//26
f 117//157 118//121 119//122
f 117//157 119//122 113//48
f 81//46 10//69 84//130
f 84//130 91//129 25//27
f 91//129 94//49 1//25
f 25//27 91//129 1//25
f 17//22 84//130 25//27
f 116//81 115//159 3//158
f 27//101 26//79 32//80
f 159//4 80//6 157//83
f 80//6 88//141 157//83
f 157//83 155//124 156//84
f 156//84 158//30 159//4
f 70//148 61//86 147//85
f 61//86 55//120 145//87
f 126//88 123//56 51//89
f 51//89 6//99 5//44
f 6//99 7//63 5//44
f 28//102 33//82 34//90
f 51//89 5//44 53//43
f 28//102 34//90 31//160
f 34//90 51//89 31//160
f 35//139 30//106 39//92
f 30//106 31//160 39//92
f 51//89 53//43 52//11
f 53//43 56//138 52//11
f 56//138 59//12 52//11
f 47//153 49//146 46//161
f 52//11 47//153 45//91
f 47//153 46//161 45//91
f 31//160 51//89 39//92
f 51//89 52//11 39//92
f 138//95 139//72 79//93
f 139//72 74//74 79//93
f 113//48 127//47 124//96
f 127//47 76//66 8//100
f 124//96 127//47 122//58
f 8//100 122//58 127//47
f 149//98 150//103 57//64
f 86//62 73//162 87//134
f 73//162 61//86 70//148
f 73//162 70//148 87//134
f 68//147 59//12 60//54
f 59//12 56//138 58//55
f 87//134 70//148 93//132
f 70//148 68//147 76//66
f 93//132 70//148 76//66
f 98//65 97//117 93//132
f 59//12 58//55 60//54
f 98//65 93//132 76//66
f 68//147 60//54 76//66
f 60//54 57//64 76//66
f 57//64 7//63 6//99
f 8//100 76//66 57//64
f 28//102 31//160 131//50
f 131//50 128//2 28//102
f 128//2 129//1 28//102
f 151//53 153//156 150//103
f 153//156 152//42 150//103
f 103//104 107//31 101//105
f 107//31 105//33 106//35
f 101//105 107//31 106//35
f 101//105 99//19 102//67
f 99//19 100//20 102//67
f 102//67 104//144 103//104
f 131//50 31//160 30//106
f 133//109 45//91 46//161
f 46//161 50//107 133//109
f 48//36 106//35 44//111
f 106//35 105//33 44//111
f 137//39 140//155 141//112
f 141//112 139//72 138//95
f 38//113 107//31 103//104
f 38//113 2//114 24//145
f 24//145 19//68 22//52
f 19//68 21//59 22//52
f 41//116 40//32 38//113
f 38//113 24//145 36//115
f 24//145 22//52 35//139
f 36//115 24//145 35//139
f 29//51 30//106 35//139
f 22//52 29//51 35//139
f 161//75 160//163 97//117
f 160//163 93//132 97//117
f 110//37 108//45 109//21
f 109//21 111//7 112//9
f 54//118 99//19 101//105
f 73//162 63//131 42//110
f 63//131 44//111 42//110
f 42//110 40//32 43//119
f 40//32 41//116 43//119
f 55//120 61//86 73//162
f 46//161 49//146 50//107
f 49//146 55//120 50//107
f 55//120 73//162 43//119
f 73//162 42//110 43//119
f 118//121 116//81 32//80
f 65//123 159//4 158//30
f 154//77 12//76 89//13
f 89//13 156//84 154//77
f 132//108 50//107 43//119
f 78//126 90//137 143//71
f 126//88 34//90 33//82
f 118//121 117//157 125//57
f 118//121 125//57 33//82
f 125//57 126//88 33//82
f 144//10 148//151 147//85
f 147//85 145//87 144//10
f 141//112 140//155 64//127
f 82//94 83//40 137//39
f 142//128 92//136 91//129
f 64//127 77//41 75//70
f 77//41 78//126 75//70
f 75//70 10//69 72//152
f 10//69 9//142 72//152
f 64//127 75//70 72//152
f 72//152 54//118 64//127
f 54//118 4//34 62//73
f 4//34 48//36 62//73
f 48//36 44//111 63//131
f 63//131 67//5 65//123
f 66//29 11//28 74//74
f 11//28 79//93 74//74
f 63//131 65//123 48//36
f 65//123 66//29 62//73
f 48//36 65//123 62//73
f 62//73 64//127 54//118
f 123//56 122//58 6//99
f 122//58 8//100 6//99
f 85//61 88//141 80//6
f 80//6 67//5 63//131
f 63//131 73//162 85//61
f 73//162 86//62 85//61
f 124//96 125//57 37//97
f 125//57 117//157 37//97
f 93//132 160//163 162//133
f 135//140 133//109 136//135
f 133//109 132//108 136//135
f 92//136 142//128 143//71
f 120//78 119//122 32//80
f 56//138 53//43 153//156
f 153//156 151//53 56//138
f 36//115 35//139 136//135
f 35//139 39//92 135//140
f 88//141 85//61 163//60
f 110//37 71//38 72//152
f 72//152 9//142 110//37
f 9//142 81//46 108//45
f 129//1 20//149 23//143
f 45//91 133//109 135//140
f 2//114 103//104 104//144
f 41//116 36//115 134//125
f 36//115 136//135 134//125
f 163//60 162//133 155//124
f 162//133 160//163 155//124
f 160//163 161//75 155//124
f 161//75 154//77 155//124
f 55//120 49//146 145//87
f 49//146 47//153 146//24
f 102//67 100//20 13//17
f 147//85 148//151 68//147
