# FreeCAD v1.0 build0 Arch module
# https://www.freecad.org
o Extrude (Meshed)
usemtl color_cccccc
v -3.141593 -2.5 1.0
v -3.141593 2.5 1.0
v 3.141593 -2.5 1.0
v 3.141593 2.5 1.0
v -3.141593 -1.5 1.0
v -3.141593 -0.5 1.0
v -3.141593 0.5 1.0
v -3.141593 1.5 1.0
v 3.141593 -1.5 1.0
v 3.141593 -0.5 1.0
v 3.141593 0.5 1.0
v 3.141593 1.5 1.0
v -2.273193 -2.5 0.64605
v -1.570797 -2.5 0.0
v -0.8684 -2.5 -0.646049
v -0.0 -2.5 -0.999999
v 0.8684 -2.5 -0.646049
v 1.570796 -2.5 0.0
v 2.273193 -2.5 0.646049
v -2.273193 2.5 0.64605
v -1.570797 2.5 0.0
v -0.8684 2.5 -0.646049
v -0.0 2.5 -0.999999
v 0.8684 2.5 -0.646049
v 1.570796 2.5 0.0
v 2.273193 2.5 0.646049
v -1.677968 -0.093923 0.106967
v 1.677975 -0.093923 0.106974
v 2.459233 -1.877054 0.776087
v 2.459233 1.689208 0.776087
v 0.928127 1.689208 -0.599335
v -2.459224 -1.877054 0.776081
v -0.928119 1.689208 -0.599341
v -2.459224 1.689208 0.776081
v 5e-06 -0.093923 -0.999999
v -0.928119 -1.877054 -0.599341
v 0.928127 -1.877054 -0.599335
v 2.930584 -0.985488 0.977821
v 2.051235 -0.985488 0.462168
v 2.459233 -0.093923 0.776087
v 2.051235 0.797642 0.462168
v 1.312056 0.797642 -0.255863
v 1.677975 1.689208 0.106974
v 2.930584 0.797642 0.977821
v -2.051227 -0.985488 0.462161
v -2.930574 -0.985488 0.977819
v -2.459224 -0.093923 0.776081
v -1.312048 0.797642 -0.255871
v -2.051227 0.797642 0.462161
v -1.677968 1.689208 0.106967
v -2.930574 0.797642 0.977819
v 5e-06 1.689208 -0.999999
v -0.496671 0.797642 -0.879174
v -0.928119 -0.093923 -0.599341
v 0.496681 0.797642 -0.879169
v 0.928127 -0.093923 -0.599335
v -1.312048 -0.985488 -0.255871
v -1.677968 -1.877054 0.106967
v 1.312056 -0.985488 -0.255863
v 1.677975 -1.877054 0.106974
v 5e-06 -1.877054 -0.999999
v 0.496681 -0.985488 -0.879169
v -0.496671 -0.985488 -0.879174
vn -0.50453 0.072056 0.860382
vn -0.650193 0.03024 0.759167
vn -0.270949 0.073918 0.959751
vn -0.50453 -0.072056 0.860382
vn -0.104534 0.0 0.994521
vn -0.311788 0.0 0.950152
vn -0.275104 -0.071495 0.958752
vn -0.696759 0.005943 0.71728
vn -0.650193 0.03024 0.759167
vn -0.685582 -0.014829 0.727844
vn -0.696759 -0.005943 0.71728
vn -0.37672 0.061796 0.924263
vn -0.650246 -0.027434 0.759228
vn -0.685648 0.005403 0.727914
vn -0.676949 -0.007463 0.735992
vn -0.676948 0.007619 0.735991
vn -0.50453 -0.072056 0.860382
vn -0.650193 -0.03024 0.759167
vn -0.235104 -0.094589 0.967357
vn -0.50453 0.072056 0.860382
vn -0.311788 0.0 0.950152
vn -0.104534 0.0 0.994521
vn -0.311788 0.0 0.950152
vn -0.296448 0.058961 0.953227
vn 0.376222 -0.080321 0.923041
vn 0.504535 0.072055 0.860379
vn 0.311791 0.0 0.950151
vn 0.650195 0.030239 0.759165
vn 0.504535 -0.072055 0.860379
vn 0.311791 0.0 0.950151
vn 0.270951 0.07392 0.959751
vn 0.104539 0.0 0.994521
vn 0.275106 -0.071498 0.958752
vn 0.69676 0.005942 0.71728
vn 0.685581 -0.01483 0.727845
vn 0.650195 0.030239 0.759165
vn 0.69676 -0.005942 0.71728
vn 0.396222 0.023691 0.917849
vn 0.676948 0.007618 0.735991
vn 0.650248 -0.027433 0.759227
vn 0.676949 -0.007462 0.735992
vn 0.685647 0.005403 0.727914
vn 0.311791 0.0 0.950151
vn 0.37672 0.061794 0.924264
vn 0.504535 -0.072055 0.860379
vn 0.650195 -0.030239 0.759165
vn 0.504535 0.072055 0.860379
vn 0.104539 0.0 0.994521
vn 0.235106 -0.094592 0.967356
vn 0.296451 0.058963 0.953226
vn 0.377441 3e-06 0.926034
vn -0.377441 -3e-06 0.926034
vn 0.606713 0.044493 0.793675
vn -0.396228 0.023694 0.917846
vn 0.685581 0.01483 0.727845
vn 0.394506 0.095924 0.913873
vn 0.606713 -0.044493 0.793675
vn -0.606716 0.044493 0.793673
vn -0.394512 0.095923 0.913871
vn -0.685582 0.014829 0.727844
vn -0.606716 -0.044493 0.793673
vn -5e-06 -0.134295 0.990941
vn -0.394512 -0.095923 0.913871
vn 0.394506 -0.095924 0.913873
vn -5e-06 0.134295 0.990941
vn 0.69676 -0.005942 0.71728
vn 0.650195 -0.030239 0.759165
vn 0.685581 0.01483 0.727845
vn 0.69676 0.005942 0.71728
vn 0.650078 0.035696 0.759029
vn 0.676936 0.009712 0.735977
vn 0.396145 -0.030829 0.91767
vn -0.696759 -0.005943 0.71728
vn 0.676935 -0.009915 0.735976
vn 0.68564 -0.007032 0.727907
vn -0.685582 0.014829 0.727844
vn -0.650193 -0.03024 0.759167
vn -0.696759 0.005943 0.71728
vn -0.676935 -0.009916 0.735976
vn -0.376222 -0.080324 0.923041
vn -0.650076 0.035697 0.75903
vn -0.685641 -0.007032 0.727906
vn -0.676936 0.009713 0.735978
vn -0.396151 -0.030833 0.917668
vn 0.377441 -3e-06 0.926034
vn -0.606716 -0.044493 0.793673
vn -0.377441 3e-06 0.926034
vn -0.685582 -0.014829 0.727844
vn -0.394512 -0.095923 0.91387
vn -0.606716 0.044493 0.793673
vn 0.606713 -0.044493 0.793675
vn 0.394506 -0.095924 0.913873
vn 0.685581 -0.01483 0.727845
vn 0.606713 0.044493 0.793675
vn -5e-06 0.134295 0.990941
vn 0.394506 0.095924 0.913873
vn -0.394512 0.095923 0.91387
vn -5e-06 -0.134295 0.990941
f 39//1 29//1 38//1 
f 28//2 39//2 40//2 
f 38//3 10//3 40//3 
f 38//4 40//4 39//4 
f 9//5 10//5 38//5 
f 3//6 9//6 29//6 
f 29//7 9//7 38//7 
f 42//8 28//8 41//8 
f 43//9 41//9 30//9 
f 31//10 42//10 43//10 
f 41//11 43//11 42//11 
f 4//12 26//12 30//12 
f 30//13 26//13 43//13 
f 25//14 31//14 43//14 
f 31//15 25//15 24//15 
f 26//16 25//16 43//16 
f 44//17 30//17 41//17 
f 40//18 41//18 28//18 
f 44//19 40//19 11//19 
f 41//20 40//20 44//20 
f 10//21 11//21 40//21 
f 11//22 12//22 44//22 
f 30//23 12//23 4//23 
f 44//24 12//24 30//24 
f 32//25 1//25 13//25 
f 46//26 32//26 45//26 
f 5//27 1//27 32//27 
f 47//28 45//28 27//28 
f 45//29 47//29 46//29 
f 7//30 6//30 47//30 
f 47//31 6//31 46//31 
f 6//32 5//32 46//32 
f 46//33 5//33 32//33 
f 49//34 27//34 48//34 
f 50//35 48//35 33//35 
f 34//36 49//36 50//36 
f 48//37 50//37 49//37 
f 52//38 22//38 33//38 
f 21//39 20//39 50//39 
f 34//40 50//40 20//40 
f 21//41 33//41 22//41 
f 33//42 21//42 50//42 
f 34//43 2//43 8//43 
f 20//44 2//44 34//44 
f 49//45 34//45 51//45 
f 27//46 49//46 47//46 
f 51//47 47//47 49//47 
f 8//48 7//48 51//48 
f 51//49 7//49 47//49 
f 34//50 8//50 51//50 
f 22//51 52//51 23//51 
f 52//52 24//52 23//52 
f 53//53 33//53 48//53 
f 24//54 52//54 31//54 
f 54//55 48//55 27//55 
f 35//56 53//56 54//56 
f 48//57 54//57 53//57 
f 42//58 31//58 55//58 
f 56//59 55//59 35//59 
f 28//60 42//60 56//60 
f 55//61 56//61 42//61 
f 53//62 35//62 55//62 
f 52//63 55//63 31//63 
f 33//64 53//64 52//64 
f 55//65 52//65 53//65 
f 57//66 27//66 45//66 
f 58//67 45//67 32//67 
f 36//68 57//68 58//68 
f 45//69 58//69 57//69 
f 32//70 13//70 58//70 
f 14//71 15//71 36//71 
f 36//72 15//72 61//72 
f 39//73 28//73 59//73 
f 13//74 14//74 58//74 
f 58//75 14//75 36//75 
f 60//76 59//76 37//76 
f 29//77 39//77 60//77 
f 59//78 60//78 39//78 
f 18//79 19//79 60//79 
f 29//80 19//80 3//80 
f 29//81 60//81 19//81 
f 60//82 37//82 18//82 
f 17//83 18//83 37//83 
f 37//84 61//84 17//84 
f 61//85 15//85 16//85 
f 62//86 37//86 59//86 
f 61//87 16//87 17//87 
f 56//88 59//88 28//88 
f 35//89 62//89 56//89 
f 59//90 56//90 62//90 
f 57//91 36//91 63//91 
f 54//92 63//92 35//92 
f 27//93 57//93 54//93 
f 63//94 54//94 57//94 
f 62//95 35//95 63//95 
f 61//96 63//96 36//96 
f 37//97 62//97 61//97 
f 63//98 61//98 62//98 
