# FreeCAD v1.0 build0 Arch module
# https://www.freecad.org
o Body (Meshed)
usemtl color_cccccc
v -40.0 25.0 -2.5
v -40.0 -25.0 -2.5
v -40.0 25.0 -0.0
v -40.0 -25.0 0.0
v -1.281165 25.0 -0.0
v -1.281165 -25.0 0.0
v -0.625 25.0 7.5
v -0.625 -25.0 7.5
v 40.0 25.0 -2.5
v 40.0 -25.0 -2.5
v 40.0 25.0 0.0
v 40.0 -25.0 0.0
v 1.281165 25.0 -0.0
v 1.281165 -25.0 0.0
v 0.625 25.0 7.5
v 0.625 -25.0 7.5
v -40.0 8.333333 -2.5
v -40.0 -8.333333 -2.5
v -40.0 8.333333 -0.0
v -40.0 -8.333333 0.0
v -1.281165 8.333333 -0.0
v -1.281165 -8.333333 0.0
v -20.640583 25.0 -0.0
v -20.640583 -25.0 0.0
v -0.625 8.333333 7.5
v -0.625 -8.333333 7.5
v 20.0 25.0 -2.5
v 0.0 25.0 -2.5
v -20.0 25.0 -2.5
v 40.0 8.333333 -2.5
v 40.0 -8.333333 -2.5
v -20.0 -25.0 -2.5
v 0.0 -25.0 -2.5
v 20.0 -25.0 -2.5
v 40.0 8.333333 0.0
v 40.0 -8.333333 0.0
v 1.281165 8.333333 -0.0
v 1.281165 -8.333333 0.0
v 20.640583 25.0 -0.0
v 20.640583 -25.0 0.0
v 0.625 8.333333 7.5
v 0.625 -8.333333 7.5
v -40.0 5.886616 -1.25
v -40.0 -16.119192 -1.25
v -39.694347 -9.741675 0.0
v -1.586816 -9.741675 0.0
v -20.640583 23.260416 -0.0
v -1.586816 23.260416 -0.0
v -39.694347 23.260416 -0.0
v -20.640583 -9.741675 0.0
v -30.167465 6.75937 -0.0
v -11.113699 6.75937 -0.0
v -0.953083 8.524239 3.75
v -0.953083 -15.428962 3.75
v 28.448248 -0.0 -2.5
v -36.816509 12.560208 -2.5
v -36.816509 -12.560208 -2.5
v -15.06159 -0.0 -2.5
v 6.693328 -12.560208 -2.5
v 6.693328 12.560208 -2.5
v 39.325706 18.840313 -2.5
v 39.325706 6.280104 -2.5
v 28.448248 12.560208 -2.5
v 39.325706 -6.280104 -2.5
v 39.325706 -18.840313 -2.5
v 28.448248 -12.560208 -2.5
v -25.939051 18.840313 -2.5
v -25.939051 -18.840313 -2.5
v -36.816509 -0.0 -2.5
v -25.939051 -6.280104 -2.5
v -15.06159 -12.560208 -2.5
v -25.939051 6.280104 -2.5
v -15.06159 12.560208 -2.5
v -4.184131 -18.840313 -2.5
v 17.570787 -18.840313 -2.5
v 17.570787 -6.280104 -2.5
v -4.184131 18.840313 -2.5
v 17.570787 6.280104 -2.5
v 17.570787 18.840313 -2.5
v 6.693328 -0.0 -2.5
v -4.184131 6.280104 -2.5
v -4.184131 -6.280104 -2.5
v 40.0 5.886616 -1.25
v 40.0 -16.119192 -1.25
v 39.694347 -9.741675 0.0
v 1.586816 -9.741675 0.0
v 20.640583 23.260416 -0.0
v 1.586816 23.260416 -0.0
v 39.694347 23.260416 0.0
v 20.640583 -9.741675 0.0
v 30.167465 6.75937 0.0
v 11.113699 6.75937 0.0
v 0.953083 8.524239 3.75
v 0.953083 -15.428962 3.75
v -1.473778 25.0 -2.054749
v 14.304334 25.0 -2.054749
v -1.473778 -25.0 -2.054749
v 14.304334 -25.0 -2.054749
vn -1.0 0.0 0.0
vn -1.0 0.0 0.0
vn -1.0 0.0 0.0
vn -1.0 0.0 0.0
vn -1.0 -0.0 0.0
vn -1.0 -0.0 0.0
vn -1.0 0.0 0.0
vn -1.0 0.0 0.0
vn -1.0 -0.0 0.0
vn -1.0 0.0 0.0
vn 0.0 0.0 1.0
vn 0.0 -0.0 1.0
vn 0.0 0.0 1.0
vn -0.0 0.0 1.0
vn 0.0 -0.0 1.0
vn 0.0 0.0 1.0
vn 0.0 0.0 1.0
vn 0.0 0.0 1.0
vn 0.0 0.0 1.0
vn 0.0 0.0 1.0
vn -0.0 0.0 1.0
vn 0.0 0.0 1.0
vn -0.0 0.0 1.0
vn 0.0 0.0 1.0
vn 0.0 0.0 1.0
vn 0.0 0.0 1.0
vn 0.0 0.0 1.0
vn 0.0 0.0 1.0
vn 0.0 0.0 1.0
vn 0.0 0.0 1.0
vn 0.0 0.0 1.0
vn 0.0 0.0 1.0
vn 0.0 0.0 1.0
vn 0.0 0.0 1.0
vn -0.996195 0.0 0.087156
vn -0.996195 0.0 0.087156
vn -0.996195 0.0 0.087156
vn -0.996195 0.0 0.087156
vn -0.996195 0.0 0.087156
vn -0.996195 0.0 0.087156
vn -0.996195 0.0 0.087156
vn -0.996195 0.0 0.087156
vn -0.996195 0.0 0.087156
vn -0.996195 0.0 0.087156
vn 0.0 0.0 -1.0
vn 0.0 0.0 -1.0
vn 0.0 0.0 -1.0
vn 0.0 -0.0 -1.0
vn 0.0 0.0 -1.0
vn 0.0 0.0 -1.0
vn 0.0 0.0 -1.0
vn 0.0 0.0 -1.0
vn 0.0 0.0 -1.0
vn 0.0 -0.0 -1.0
vn 0.0 -0.0 -1.0
vn 0.0 -0.0 -1.0
vn 0.0 0.0 -1.0
vn 0.0 0.0 -1.0
vn -0.0 0.0 -1.0
vn 0.0 0.0 -1.0
vn 0.0 0.0 -1.0
vn -0.0 0.0 -1.0
vn 0.0 -0.0 -1.0
vn 0.0 -0.0 -1.0
vn 0.0 0.0 -1.0
vn 0.0 0.0 -1.0
vn 0.0 -0.0 -1.0
vn 0.0 0.0 -1.0
vn 0.0 -0.0 -1.0
vn 0.0 -0.0 -1.0
vn 0.0 -0.0 -1.0
vn 0.0 0.0 -1.0
vn 0.0 -0.0 -1.0
vn 0.0 -0.0 -1.0
vn 0.0 0.0 -1.0
vn 0.0 0.0 -1.0
vn 0.0 0.0 -1.0
vn 0.0 0.0 -1.0
vn 0.0 0.0 -1.0
vn 0.0 -0.0 -1.0
vn 0.0 -0.0 -1.0
vn 0.0 0.0 -1.0
vn 0.0 0.0 -1.0
vn 0.0 -0.0 -1.0
vn 0.0 -0.0 -1.0
vn 0.0 -0.0 -1.0
vn 0.0 0.0 -1.0
vn 0.0 -0.0 -1.0
vn 0.0 0.0 -1.0
vn 0.0 0.0 -1.0
vn 0.0 -0.0 -1.0
vn -0.0 0.0 -1.0
vn 0.0 -0.0 -1.0
vn 0.0 0.0 -1.0
vn 0.0 0.0 -1.0
vn 0.0 0.0 -1.0
vn 0.0 0.0 -1.0
vn 0.0 0.0 -1.0
vn 0.0 0.0 -1.0
vn 0.0 0.0 -1.0
vn 0.0 -0.0 -1.0
vn 0.0 0.0 -1.0
vn 0.0 0.0 -1.0
vn 0.0 0.0 -1.0
vn 0.0 -0.0 -1.0
vn 0.0 0.0 -1.0
vn 0.0 0.0 -1.0
vn 0.0 -0.0 -1.0
vn 0.0 -0.0 -1.0
vn 0.0 -0.0 -1.0
vn 0.0 -0.0 -1.0
vn 0.0 0.0 -1.0
vn 1.0 0.0 0.0
vn 1.0 0.0 0.0
vn 1.0 0.0 -0.0
vn 1.0 0.0 0.0
vn 1.0 0.0 0.0
vn 1.0 0.0 0.0
vn 1.0 0.0 0.0
vn 1.0 0.0 0.0
vn 1.0 0.0 0.0
vn 1.0 0.0 -0.0
vn -0.0 0.0 1.0
vn -0.0 0.0 1.0
vn -0.0 0.0 1.0
vn -0.0 0.0 1.0
vn -0.0 0.0 1.0
vn -0.0 0.0 1.0
vn -0.0 0.0 1.0
vn -0.0 0.0 1.0
vn -0.0 -0.0 1.0
vn -0.0 -0.0 1.0
vn -0.0 0.0 1.0
vn -0.0 0.0 1.0
vn -0.0 0.0 1.0
vn -0.0 0.0 1.0
vn -0.0 0.0 1.0
vn -0.0 0.0 1.0
vn -0.0 0.0 1.0
vn -0.0 0.0 1.0
vn -0.0 0.0 1.0
vn -0.0 0.0 1.0
vn -0.0 0.0 1.0
vn -0.0 0.0 1.0
vn -0.0 0.0 1.0
vn -0.0 0.0 1.0
vn 0.996195 0.0 0.087156
vn 0.996195 0.0 0.087156
vn 0.996195 0.0 0.087156
vn 0.996195 0.0 0.087156
vn 0.996195 0.0 0.087156
vn 0.996195 -0.0 0.087156
vn 0.996195 0.0 0.087156
vn 0.996195 0.0 0.087156
vn 0.996195 0.0 0.087156
vn 0.996195 0.0 0.087156
vn 0.0 1.0 0.0
vn 0.0 1.0 -0.0
vn 0.0 1.0 0.0
vn -0.0 1.0 0.0
vn 0.0 1.0 0.0
vn 0.0 1.0 0.0
vn 0.0 1.0 0.0
vn 0.0 1.0 -0.0
vn 0.0 1.0 0.0
vn 0.0 1.0 0.0
vn -0.0 1.0 0.0
vn -0.0 1.0 0.0
vn 0.0 1.0 0.0
vn 0.0 1.0 0.0
vn 0.0 1.0 0.0
vn 0.0 -1.0 0.0
vn -0.0 -1.0 0.0
vn 0.0 -1.0 -0.0
vn 0.0 -1.0 0.0
vn 0.0 -1.0 0.0
vn 0.0 -1.0 0.0
vn 0.0 -1.0 0.0
vn 0.0 -1.0 0.0
vn 0.0 -1.0 0.0
vn 0.0 -1.0 -0.0
vn 0.0 -1.0 0.0
vn 0.0 -1.0 0.0
vn 0.0 -1.0 0.0
vn 0.0 -1.0 0.0
vn -0.0 -1.0 0.0
vn 0.0 0.0 1.0
vn 0.0 0.0 1.0
vn 0.0 -0.0 1.0
vn 0.0 0.0 1.0
vn 0.0 0.0 1.0
vn 0.0 -0.0 1.0
f 18//1 43//1 17//1 
f 1//2 17//2 19//2 
f 17//3 43//3 19//3 
f 19//4 3//4 1//4 
f 20//5 44//5 4//5 
f 44//6 2//6 4//6 
f 2//7 44//7 18//7 
f 18//8 20//8 43//8 
f 19//9 43//9 20//9 
f 18//10 44//10 20//10 
f 5//11 23//11 48//11 
f 47//12 23//12 49//12 
f 19//13 49//13 3//13 
f 49//14 23//14 3//14 
f 47//15 48//15 23//15 
f 22//16 46//16 6//16 
f 4//17 45//17 20//17 
f 45//18 4//18 24//18 
f 24//19 50//19 45//19 
f 46//20 50//20 24//20 
f 24//21 6//21 46//21 
f 51//22 19//22 20//22 
f 45//23 50//23 20//23 
f 47//24 49//24 51//24 
f 48//25 47//25 52//25 
f 51//26 49//26 19//26 
f 52//27 50//27 22//27 
f 51//28 52//28 47//28 
f 52//29 22//29 21//29 
f 5//30 48//30 21//30 
f 48//31 52//31 21//31 
f 46//32 22//32 50//32 
f 51//33 20//33 50//33 
f 52//34 51//34 50//34 
f 53//35 7//35 5//35 
f 53//36 25//36 7//36 
f 5//37 21//37 53//37 
f 26//38 54//38 8//38 
f 54//39 6//39 8//39 
f 26//40 25//40 53//40 
f 53//41 22//41 26//41 
f 6//42 54//42 22//42 
f 53//43 21//43 22//43 
f 22//44 54//44 26//44 
f 27//45 9//45 61//45 
f 62//46 63//46 30//46 
f 55//47 63//47 62//47 
f 61//48 30//48 63//48 
f 30//49 61//49 9//49 
f 66//50 55//50 64//50 
f 65//51 66//51 31//51 
f 10//52 65//52 31//52 
f 34//53 75//53 66//53 
f 64//54 31//54 66//54 
f 66//55 65//55 34//55 
f 62//56 64//56 55//56 
f 31//57 64//57 62//57 
f 62//58 30//58 31//58 
f 77//59 73//59 29//59 
f 1//60 29//60 67//60 
f 1//61 56//61 17//61 
f 67//62 56//62 1//62 
f 68//63 32//63 2//63 
f 57//64 68//64 2//64 
f 68//65 71//65 32//65 
f 18//66 57//66 2//66 
f 69//67 70//67 18//67 
f 17//68 69//68 18//68 
f 56//69 69//69 17//69 
f 70//70 68//70 57//70 
f 58//71 71//71 70//71 
f 68//72 70//72 71//72 
f 67//73 72//73 56//73 
f 73//74 58//74 72//74 
f 67//75 29//75 73//75 
f 72//76 67//76 73//76 
f 70//77 72//77 58//77 
f 69//78 56//78 72//78 
f 57//79 18//79 70//79 
f 72//80 70//80 69//80 
f 74//81 33//81 32//81 
f 32//82 71//82 74//82 
f 74//83 59//83 33//83 
f 76//84 75//84 59//84 
f 65//85 10//85 34//85 
f 55//86 66//86 76//86 
f 75//87 76//87 66//87 
f 75//88 34//88 33//88 
f 33//89 59//89 75//89 
f 77//90 28//90 60//90 
f 79//91 78//91 60//91 
f 79//92 60//92 28//92 
f 63//93 55//93 78//93 
f 63//94 79//94 27//94 
f 78//95 79//95 63//95 
f 27//96 61//96 63//96 
f 28//97 27//97 79//97 
f 76//98 78//98 55//98 
f 80//99 60//99 78//99 
f 59//100 80//100 76//100 
f 78//101 76//101 80//101 
f 81//102 77//102 60//102 
f 29//103 28//103 77//103 
f 58//104 73//104 81//104 
f 77//105 81//105 73//105 
f 74//106 82//106 59//106 
f 71//107 58//107 82//107 
f 82//108 74//108 71//108 
f 81//109 82//109 58//109 
f 80//110 59//110 82//110 
f 60//111 80//111 81//111 
f 82//112 81//112 80//112 
f 31//113 30//113 83//113 
f 9//114 35//114 30//114 
f 30//115 35//115 83//115 
f 35//116 9//116 11//116 
f 36//117 12//117 84//117 
f 84//118 12//118 10//118 
f 10//119 31//119 84//119 
f 31//120 83//120 36//120 
f 35//121 36//121 83//121 
f 31//122 36//122 84//122 
f 13//123 88//123 39//123 
f 87//124 89//124 39//124 
f 35//125 11//125 89//125 
f 89//126 11//126 39//126 
f 87//127 39//127 88//127 
f 38//128 14//128 86//128 
f 12//129 36//129 85//129 
f 85//130 40//130 12//130 
f 40//131 85//131 90//131 
f 86//132 40//132 90//132 
f 40//133 86//133 14//133 
f 91//134 36//134 35//134 
f 85//135 36//135 90//135 
f 87//136 91//136 89//136 
f 88//137 92//137 87//137 
f 91//138 35//138 89//138 
f 92//139 38//139 90//139 
f 91//140 87//140 92//140 
f 92//141 37//141 38//141 
f 13//142 37//142 88//142 
f 88//143 37//143 92//143 
f 86//144 90//144 38//144 
f 91//145 90//145 36//145 
f 92//146 90//146 91//146 
f 93//147 13//147 15//147 
f 93//148 15//148 41//148 
f 13//149 93//149 37//149 
f 42//150 16//150 94//150 
f 94//151 16//151 14//151 
f 42//152 93//152 41//152 
f 93//153 42//153 38//153 
f 14//154 38//154 94//154 
f 93//155 38//155 37//155 
f 38//156 42//156 94//156 
f 1//157 3//157 23//157 
f 29//158 23//158 5//158 
f 23//159 29//159 1//159 
f 39//160 11//160 9//160 
f 39//161 96//161 13//161 
f 96//162 27//162 28//162 
f 9//163 27//163 39//163 
f 27//164 96//164 39//164 
f 95//165 28//165 29//165 
f 5//166 95//166 29//166 
f 95//167 5//167 28//167 
f 7//168 15//168 5//168 
f 13//169 28//169 5//169 
f 5//170 15//170 13//170 
f 96//171 28//171 13//171 
f 2//172 32//172 24//172 
f 24//173 4//173 2//173 
f 40//174 34//174 10//174 
f 10//175 12//175 40//175 
f 98//176 34//176 40//176 
f 32//177 33//177 97//177 
f 32//178 97//178 6//178 
f 6//179 24//179 32//179 
f 14//180 16//180 8//180 
f 8//181 6//181 14//181 
f 33//182 34//182 98//182 
f 14//183 98//183 40//183 
f 14//184 6//184 33//184 
f 97//185 33//185 6//185 
f 98//186 14//186 33//186 
f 42//187 26//187 16//187 
f 26//188 8//188 16//188 
f 41//189 15//189 7//189 
f 25//190 26//190 42//190 
f 7//191 25//191 41//191 
f 42//192 41//192 25//192 
